<mxfile host="app.diagrams.net" modified="2020-10-21T06:09:08.772Z" agent="5.0 (Windows NT 10.0; Win64; x64) AppleWebKit/537.36 (KHTML, like Gecko) Chrome/86.0.4240.75 Safari/537.36" etag="Rdut6M27AH7L7yxR9j3i" version="13.8.0" type="github">
  <diagram id="tQBDNZwCBWh_bteMR1vP" name="Page-1">
    <mxGraphModel dx="1422" dy="1928" grid="1" gridSize="10" guides="1" tooltips="1" connect="1" arrows="1" fold="1" page="1" pageScale="1" pageWidth="850" pageHeight="1100" math="0" shadow="0">
      <root>
        <mxCell id="0" />
        <mxCell id="1" parent="0" />
        <mxCell id="gLGnZoHTnJrKlAlC88jH-42" style="edgeStyle=orthogonalEdgeStyle;rounded=0;orthogonalLoop=1;jettySize=auto;html=1;entryX=0;entryY=0.3;entryDx=0;entryDy=0;" edge="1" parent="1" source="__ydDhkN1Fn5WU4UCvgq-1" target="gLGnZoHTnJrKlAlC88jH-11">
          <mxGeometry relative="1" as="geometry">
            <Array as="points">
              <mxPoint x="360" y="245" />
              <mxPoint x="360" y="338" />
            </Array>
          </mxGeometry>
        </mxCell>
        <mxCell id="__ydDhkN1Fn5WU4UCvgq-1" value="CPITransform.dbo.tblCATHierarchyToMarket" style="rounded=1;whiteSpace=wrap;html=1;fontSize=14;fontStyle=1" parent="1" vertex="1">
          <mxGeometry x="20" y="210" width="320" height="70" as="geometry" />
        </mxCell>
        <mxCell id="gLGnZoHTnJrKlAlC88jH-39" style="edgeStyle=orthogonalEdgeStyle;rounded=0;orthogonalLoop=1;jettySize=auto;html=1;entryX=0.567;entryY=-0.1;entryDx=0;entryDy=0;entryPerimeter=0;" edge="1" parent="1" source="__ydDhkN1Fn5WU4UCvgq-3" target="gLGnZoHTnJrKlAlC88jH-11">
          <mxGeometry relative="1" as="geometry" />
        </mxCell>
        <mxCell id="__ydDhkN1Fn5WU4UCvgq-3" value="CPITransform.dbo.tblCATRolldownHierarchy" style="rounded=1;whiteSpace=wrap;html=1;fontSize=14;fontStyle=1" parent="1" vertex="1">
          <mxGeometry x="390" y="210" width="330" height="50" as="geometry" />
        </mxCell>
        <mxCell id="gLGnZoHTnJrKlAlC88jH-43" style="edgeStyle=orthogonalEdgeStyle;rounded=0;orthogonalLoop=1;jettySize=auto;html=1;entryX=1;entryY=0.3;entryDx=0;entryDy=0;" edge="1" parent="1" source="__ydDhkN1Fn5WU4UCvgq-4" target="gLGnZoHTnJrKlAlC88jH-11">
          <mxGeometry relative="1" as="geometry">
            <Array as="points">
              <mxPoint x="740" y="240" />
              <mxPoint x="740" y="338" />
            </Array>
          </mxGeometry>
        </mxCell>
        <mxCell id="__ydDhkN1Fn5WU4UCvgq-4" value="CPITransform.dbo.&lt;span style=&quot;background-color: rgb(255, 255, 254); font-family: consolas, &amp;quot;courier new&amp;quot;, monospace; font-size: 14px;&quot;&gt;tblCATHierarchyComment&lt;/span&gt;" style="rounded=1;whiteSpace=wrap;html=1;fontSize=14;fontStyle=1" parent="1" vertex="1">
          <mxGeometry x="805" y="210" width="325" height="60" as="geometry" />
        </mxCell>
        <mxCell id="__ydDhkN1Fn5WU4UCvgq-11" style="edgeStyle=orthogonalEdgeStyle;rounded=0;orthogonalLoop=1;jettySize=auto;html=1;" parent="1" source="__ydDhkN1Fn5WU4UCvgq-5" edge="1">
          <mxGeometry relative="1" as="geometry">
            <mxPoint x="155" y="210" as="targetPoint" />
          </mxGeometry>
        </mxCell>
        <mxCell id="__ydDhkN1Fn5WU4UCvgq-5" value="CPITransform.do.tblCATHierarchyToMarketSource" style="rounded=1;whiteSpace=wrap;html=1;fontSize=14;fontStyle=1" parent="1" vertex="1">
          <mxGeometry x="10" y="110" width="350" height="60" as="geometry" />
        </mxCell>
        <mxCell id="__ydDhkN1Fn5WU4UCvgq-9" style="edgeStyle=orthogonalEdgeStyle;rounded=0;orthogonalLoop=1;jettySize=auto;html=1;exitX=0.5;exitY=1;exitDx=0;exitDy=0;entryX=0.474;entryY=-0.033;entryDx=0;entryDy=0;entryPerimeter=0;" parent="1" source="__ydDhkN1Fn5WU4UCvgq-6" target="__ydDhkN1Fn5WU4UCvgq-5" edge="1">
          <mxGeometry relative="1" as="geometry" />
        </mxCell>
        <mxCell id="__ydDhkN1Fn5WU4UCvgq-6" value="&lt;div&gt;CPITransform.dbo.tblREFMarket&amp;nbsp;&lt;/div&gt;&lt;div&gt;CPITransform.dbo.tblMTRHierarchyToMarket&lt;/div&gt;&lt;div&gt;CPITransform.dbo.tblCATHierarchy&lt;/div&gt;&lt;div&gt;CPITransform.dbo.tblMTRHierarchyToMotorcraft&lt;/div&gt;" style="rounded=1;whiteSpace=wrap;html=1;fontSize=14;fontStyle=1" parent="1" vertex="1">
          <mxGeometry width="340" height="70" as="geometry" />
        </mxCell>
        <mxCell id="gLGnZoHTnJrKlAlC88jH-46" style="edgeStyle=orthogonalEdgeStyle;rounded=0;orthogonalLoop=1;jettySize=auto;html=1;entryX=0.5;entryY=0;entryDx=0;entryDy=0;fontSize=14;" edge="1" parent="1" source="__ydDhkN1Fn5WU4UCvgq-12" target="__ydDhkN1Fn5WU4UCvgq-3">
          <mxGeometry relative="1" as="geometry" />
        </mxCell>
        <mxCell id="__ydDhkN1Fn5WU4UCvgq-12" value="CPITransform.dbo.&lt;span style=&quot;background-color: rgb(255, 255, 254); font-family: consolas, &amp;quot;courier new&amp;quot;, monospace; font-size: 14px;&quot;&gt;tblAPLRolldownHierarchy&lt;/span&gt;" style="rounded=1;whiteSpace=wrap;html=1;fontSize=14;fontStyle=1" parent="1" vertex="1">
          <mxGeometry x="400" y="110" width="315" height="60" as="geometry" />
        </mxCell>
        <mxCell id="gLGnZoHTnJrKlAlC88jH-45" style="edgeStyle=orthogonalEdgeStyle;rounded=0;orthogonalLoop=1;jettySize=auto;html=1;entryX=0.46;entryY=0.033;entryDx=0;entryDy=0;entryPerimeter=0;fontSize=14;" edge="1" parent="1" source="__ydDhkN1Fn5WU4UCvgq-14" target="__ydDhkN1Fn5WU4UCvgq-12">
          <mxGeometry relative="1" as="geometry" />
        </mxCell>
        <mxCell id="__ydDhkN1Fn5WU4UCvgq-14" value="&lt;div style=&quot;background-color: rgb(255 , 255 , 254) ; font-family: &amp;#34;consolas&amp;#34; , &amp;#34;courier new&amp;#34; , monospace ; line-height: 16px ; font-size: 14px&quot;&gt;&lt;div style=&quot;line-height: 16px&quot;&gt;CPITransform.dbo.tblMTRHierarchyToMotorcraft&lt;/div&gt;&lt;div style=&quot;line-height: 16px&quot;&gt;CPITransform.dbo.tblCATHierarchy&lt;/div&gt;&lt;/div&gt;" style="rounded=1;whiteSpace=wrap;html=1;fontSize=14;fontStyle=1" parent="1" vertex="1">
          <mxGeometry x="375" width="340" height="50" as="geometry" />
        </mxCell>
        <mxCell id="gLGnZoHTnJrKlAlC88jH-20" style="edgeStyle=orthogonalEdgeStyle;rounded=0;orthogonalLoop=1;jettySize=auto;html=1;entryX=0.5;entryY=0;entryDx=0;entryDy=0;entryPerimeter=0;" edge="1" parent="1" source="gLGnZoHTnJrKlAlC88jH-1" target="gLGnZoHTnJrKlAlC88jH-3">
          <mxGeometry relative="1" as="geometry" />
        </mxCell>
        <mxCell id="gLGnZoHTnJrKlAlC88jH-1" value="&lt;span style=&quot;font-family: consolas, &amp;quot;courier new&amp;quot;, monospace; background-color: rgb(255, 255, 254); font-size: 14px;&quot;&gt;CPITransform.dbo.&lt;/span&gt;&lt;span style=&quot;background-color: rgb(255, 255, 254); font-family: consolas, &amp;quot;courier new&amp;quot;, monospace; font-size: 14px;&quot;&gt;tblMTRHierarchyToMotorcraft&lt;/span&gt;&lt;span style=&quot;font-family: consolas, &amp;quot;courier new&amp;quot;, monospace; background-color: rgb(255, 255, 254); font-size: 14px;&quot;&gt;&lt;br style=&quot;font-size: 14px;&quot;&gt;&lt;/span&gt;&lt;div style=&quot;background-color: rgb(255, 255, 254); font-family: consolas, &amp;quot;courier new&amp;quot;, monospace; line-height: 16px; font-size: 14px;&quot;&gt;&lt;div style=&quot;font-family: consolas, &amp;quot;courier new&amp;quot;, monospace; line-height: 16px; font-size: 14px;&quot;&gt;CPITransform.dbo.tblCATHierarchy&lt;/div&gt;&lt;div style=&quot;font-family: consolas, &amp;quot;courier new&amp;quot;, monospace; line-height: 16px; font-size: 14px;&quot;&gt;&lt;div style=&quot;font-family: consolas, &amp;quot;courier new&amp;quot;, monospace; line-height: 16px; font-size: 14px;&quot;&gt;CPITransform.dbo.tblCATHierarchyComment&lt;/div&gt;&lt;/div&gt;&lt;div style=&quot;font-family: consolas, &amp;quot;courier new&amp;quot;, monospace; line-height: 16px; font-size: 14px;&quot;&gt;&lt;div style=&quot;line-height: 16px; font-size: 14px;&quot;&gt;CPITransform.dbo.tblMTRHierarchyComment&lt;/div&gt;&lt;/div&gt;&lt;/div&gt;" style="rounded=1;whiteSpace=wrap;html=1;fontSize=14;fontStyle=1" vertex="1" parent="1">
          <mxGeometry x="780" y="-10" width="370" height="80" as="geometry" />
        </mxCell>
        <mxCell id="gLGnZoHTnJrKlAlC88jH-10" style="edgeStyle=orthogonalEdgeStyle;rounded=0;orthogonalLoop=1;jettySize=auto;html=1;" edge="1" parent="1" source="gLGnZoHTnJrKlAlC88jH-3" target="__ydDhkN1Fn5WU4UCvgq-4">
          <mxGeometry relative="1" as="geometry" />
        </mxCell>
        <mxCell id="gLGnZoHTnJrKlAlC88jH-3" value="&lt;span style=&quot;font-family: consolas, &amp;quot;courier new&amp;quot;, monospace; background-color: rgb(255, 255, 254); font-size: 14px;&quot;&gt;CPITransform.dbo.&lt;/span&gt;&lt;span style=&quot;background-color: rgb(255, 255, 254); font-family: consolas, &amp;quot;courier new&amp;quot;, monospace; font-size: 14px;&quot;&gt;tblCATHierarchyCommentSource&lt;/span&gt;&lt;span style=&quot;font-family: consolas, &amp;quot;courier new&amp;quot;, monospace; background-color: rgb(255, 255, 254); font-size: 14px;&quot;&gt;&lt;br style=&quot;font-size: 14px;&quot;&gt;&lt;/span&gt;" style="rounded=1;whiteSpace=wrap;html=1;fontSize=14;fontStyle=1" vertex="1" parent="1">
          <mxGeometry x="780" y="110" width="370" height="60" as="geometry" />
        </mxCell>
        <mxCell id="gLGnZoHTnJrKlAlC88jH-47" style="edgeStyle=orthogonalEdgeStyle;rounded=0;orthogonalLoop=1;jettySize=auto;html=1;entryX=0.486;entryY=0.008;entryDx=0;entryDy=0;entryPerimeter=0;fontSize=14;" edge="1" parent="1" source="gLGnZoHTnJrKlAlC88jH-4" target="gLGnZoHTnJrKlAlC88jH-32">
          <mxGeometry relative="1" as="geometry" />
        </mxCell>
        <mxCell id="gLGnZoHTnJrKlAlC88jH-4" value="Modas2Ford" style="shape=datastore;whiteSpace=wrap;html=1;fontStyle=1;fontSize=14;" vertex="1" parent="1">
          <mxGeometry x="497.5" y="-310" width="95" height="80" as="geometry" />
        </mxCell>
        <mxCell id="gLGnZoHTnJrKlAlC88jH-40" style="edgeStyle=orthogonalEdgeStyle;rounded=0;orthogonalLoop=1;jettySize=auto;html=1;entryX=0.633;entryY=0.017;entryDx=0;entryDy=0;entryPerimeter=0;" edge="1" parent="1" source="gLGnZoHTnJrKlAlC88jH-11" target="gLGnZoHTnJrKlAlC88jH-12">
          <mxGeometry relative="1" as="geometry" />
        </mxCell>
        <mxCell id="gLGnZoHTnJrKlAlC88jH-41" style="edgeStyle=orthogonalEdgeStyle;rounded=0;orthogonalLoop=1;jettySize=auto;html=1;" edge="1" parent="1" source="gLGnZoHTnJrKlAlC88jH-11" target="gLGnZoHTnJrKlAlC88jH-18">
          <mxGeometry relative="1" as="geometry">
            <Array as="points">
              <mxPoint x="620" y="350" />
            </Array>
          </mxGeometry>
        </mxCell>
        <mxCell id="gLGnZoHTnJrKlAlC88jH-11" value="CPI" style="shape=datastore;whiteSpace=wrap;html=1;fontSize=14;fontStyle=1" vertex="1" parent="1">
          <mxGeometry x="515" y="320" width="60" height="60" as="geometry" />
        </mxCell>
        <mxCell id="gLGnZoHTnJrKlAlC88jH-12" value="ECAT" style="shape=datastore;whiteSpace=wrap;html=1;fontSize=14;fontStyle=1" vertex="1" parent="1">
          <mxGeometry x="450" y="410" width="60" height="60" as="geometry" />
        </mxCell>
        <mxCell id="gLGnZoHTnJrKlAlC88jH-18" value="Vendor Data Feed" style="rounded=1;whiteSpace=wrap;html=1;fontSize=14;fontStyle=1" vertex="1" parent="1">
          <mxGeometry x="560" y="410" width="120" height="60" as="geometry" />
        </mxCell>
        <mxCell id="gLGnZoHTnJrKlAlC88jH-33" style="edgeStyle=orthogonalEdgeStyle;rounded=0;orthogonalLoop=1;jettySize=auto;html=1;entryX=0;entryY=0.5;entryDx=0;entryDy=0;" edge="1" parent="1" source="gLGnZoHTnJrKlAlC88jH-28" target="gLGnZoHTnJrKlAlC88jH-32">
          <mxGeometry relative="1" as="geometry" />
        </mxCell>
        <mxCell id="gLGnZoHTnJrKlAlC88jH-28" value="PIPS support files" style="rounded=1;whiteSpace=wrap;html=1;fontSize=14;fontStyle=1" vertex="1" parent="1">
          <mxGeometry x="150" y="-260" width="120" height="60" as="geometry" />
        </mxCell>
        <mxCell id="gLGnZoHTnJrKlAlC88jH-36" style="edgeStyle=orthogonalEdgeStyle;rounded=0;orthogonalLoop=1;jettySize=auto;html=1;" edge="1" parent="1" source="gLGnZoHTnJrKlAlC88jH-32" target="__ydDhkN1Fn5WU4UCvgq-6">
          <mxGeometry relative="1" as="geometry">
            <Array as="points">
              <mxPoint x="150" y="-100" />
            </Array>
          </mxGeometry>
        </mxCell>
        <mxCell id="gLGnZoHTnJrKlAlC88jH-38" style="edgeStyle=orthogonalEdgeStyle;rounded=0;orthogonalLoop=1;jettySize=auto;html=1;entryX=0.5;entryY=0;entryDx=0;entryDy=0;" edge="1" parent="1" source="gLGnZoHTnJrKlAlC88jH-32" target="gLGnZoHTnJrKlAlC88jH-1">
          <mxGeometry relative="1" as="geometry">
            <Array as="points">
              <mxPoint x="935" y="-100" />
            </Array>
          </mxGeometry>
        </mxCell>
        <mxCell id="gLGnZoHTnJrKlAlC88jH-44" style="edgeStyle=orthogonalEdgeStyle;rounded=0;orthogonalLoop=1;jettySize=auto;html=1;entryX=0.582;entryY=0.04;entryDx=0;entryDy=0;entryPerimeter=0;fontSize=14;" edge="1" parent="1" source="gLGnZoHTnJrKlAlC88jH-32" target="__ydDhkN1Fn5WU4UCvgq-14">
          <mxGeometry relative="1" as="geometry" />
        </mxCell>
        <mxCell id="gLGnZoHTnJrKlAlC88jH-32" value="&lt;div style=&quot;background-color: rgb(255, 255, 254); font-family: consolas, &amp;quot;courier new&amp;quot;, monospace; line-height: 16px; font-size: 14px;&quot;&gt;CPITransform.dbo.vwMTRListOfMotorcraftsMLIs&lt;/div&gt;&lt;div style=&quot;background-color: rgb(255, 255, 254); font-family: consolas, &amp;quot;courier new&amp;quot;, monospace; line-height: 16px; font-size: 14px;&quot;&gt;&lt;div style=&quot;font-family: consolas, &amp;quot;courier new&amp;quot;, monospace; line-height: 16px; font-size: 14px;&quot;&gt;CPITransform.dbo.tblPRTPartToAssociatedPartNumber&lt;/div&gt;&lt;div style=&quot;font-family: consolas, &amp;quot;courier new&amp;quot;, monospace; line-height: 16px; font-size: 14px;&quot;&gt;&lt;div style=&quot;line-height: 16px; font-size: 14px;&quot;&gt;CPITransform.dbo.tblCATHierarchy&lt;/div&gt;&lt;div style=&quot;line-height: 16px; font-size: 14px;&quot;&gt;&lt;div style=&quot;line-height: 16px; font-size: 14px;&quot;&gt;CPITransform.dbo.tblCATRolldownHierarchy&lt;/div&gt;&lt;div style=&quot;line-height: 16px; font-size: 14px;&quot;&gt;&lt;div style=&quot;line-height: 16px; font-size: 14px;&quot;&gt;CPITransform.dbo.tblMTRHierarchyCommentConditionSource&lt;/div&gt;&lt;div style=&quot;line-height: 16px; font-size: 14px;&quot;&gt;&lt;div style=&quot;line-height: 16px; font-size: 14px;&quot;&gt;CPITransform.dbo.tblMTRHierarchyToMarketConditionSource&lt;/div&gt;&lt;/div&gt;&lt;/div&gt;&lt;/div&gt;&lt;/div&gt;&lt;/div&gt;" style="rounded=1;whiteSpace=wrap;html=1;fontSize=14;fontStyle=1" vertex="1" parent="1">
          <mxGeometry x="330" y="-180" width="440" height="130" as="geometry" />
        </mxCell>
      </root>
    </mxGraphModel>
  </diagram>
</mxfile>
